<svg width="59" height="72" viewBox="0 0 59 72" fill="none" xmlns="http://www.w3.org/2000/svg">
<g clip-path="url(#clip0_33_267)">
<path d="M38.9846 19.5881C38.6732 21.004 38.1127 22.3337 37.3405 23.5156L39.8191 25.9657L36.1697 29.5731L33.6912 27.123C32.4955 27.8864 31.1628 28.4404 29.718 28.7482V32.2078H24.5491V28.7482C23.1167 28.4404 21.7716 27.8864 20.5759 27.123L18.0973 29.5731L14.448 25.9657L16.9141 23.5156C16.1419 22.3337 15.5814 21.0163 15.27 19.5881H11.7701V14.4787H15.27C15.5814 13.0628 16.1419 11.7331 16.9141 10.5512L14.448 8.10113L18.0973 4.49374L20.5759 6.94381C21.7716 6.18047 23.1043 5.62643 24.5491 5.31864V1.84668H29.718V5.31864C31.1503 5.62643 32.4955 6.18047 33.6912 6.94381L36.1697 4.49374L39.8191 8.10113L37.3405 10.5512C38.1127 11.7331 38.6732 13.0505 38.9846 14.4787H42.4845V19.5881H38.9846Z" stroke="#ffffff" stroke-width="3" stroke-miterlimit="10" stroke-linecap="round" stroke-linejoin="round"/>
<path d="M27.1273 20.8687C29.2735 20.8687 31.0133 19.1488 31.0133 17.0273C31.0133 14.9058 29.2735 13.186 27.1273 13.186C24.9811 13.186 23.2413 14.9058 23.2413 17.0273C23.2413 19.1488 24.9811 20.8687 27.1273 20.8687Z" stroke="#ffffff" stroke-width="3" stroke-miterlimit="10" stroke-linecap="round" stroke-linejoin="round"/>
<path d="M51.5643 21.5581L52.4113 31.2476L57.1442 43.3994L49.3847 44.0396L51.2031 49.6416L49.3847 52.5225L50.3935 59.0232C50.6426 60.5868 49.4594 62.0273 47.8651 62.1012C41.4881 62.3967 26.6291 62.0766 20.8997 53.2489" stroke="#ffffff" stroke-width="3" stroke-miterlimit="10" stroke-linecap="round" stroke-linejoin="round"/>
<path d="M37.5024 62.1504L37.0167 70.1531" stroke="#ffffff" stroke-width="3" stroke-miterlimit="10" stroke-linecap="round" stroke-linejoin="round"/>
<path d="M8.17058 69.4021C8.17058 69.4021 11.6829 55.502 10.5993 52.621C9.51574 49.74 0.784686 47.7086 1.99283 23.0232" stroke="#ffffff" stroke-width="3" stroke-miterlimit="10" stroke-linecap="round" stroke-linejoin="round"/>
</g>
<defs>
<clipPath id="clip0_33_267">
<rect width="59" height="72" fill="white"/>
</clipPath>
</defs>
</svg>
