<svg width="75" height="72" viewBox="0 0 75 72" fill="none" xmlns="http://www.w3.org/2000/svg">
<g clip-path="url(#clip0_35_284)">
<path d="M57.2904 33.4042H58.8398L63.6802 38.2738C64.154 38.7504 64.9479 38.4155 64.9479 37.7456V33.4171H71.0816C72.1829 33.4171 73.0664 32.5153 73.0664 31.4203V3.92915C73.0664 2.82126 72.17 1.93237 71.0816 1.93237H24.189C23.0878 1.93237 22.2042 2.83414 22.2042 3.92915V31.3945C22.2042 32.5024 23.1006 33.3913 24.189 33.3913H46.9182C48.0195 33.3913 48.903 34.2931 48.903 35.3881V61.2303C48.903 62.3382 48.0067 63.2271 46.9182 63.2271H16.6852L10.0905 69.8615C9.69353 70.2609 9.02766 69.9775 9.02766 69.4235V62.9565H3.90558C2.80433 62.9565 1.92078 62.0548 1.92078 60.9598V35.8132C1.92078 34.7053 2.81714 33.8164 3.90558 33.8164H9.79597" stroke="#5E279F" stroke-width="3" stroke-miterlimit="10" stroke-linecap="round"/>
<path d="M15.0717 48.657H38.4412" stroke="#5E279F" stroke-width="3" stroke-miterlimit="10" stroke-linecap="round"/>
<path d="M34.9454 18.2803H39.6577" stroke="#5E279F" stroke-width="3" stroke-miterlimit="10" stroke-linecap="round"/>
<path d="M45.3304 18.2803H50.0427" stroke="#5E279F" stroke-width="3" stroke-miterlimit="10" stroke-linecap="round"/>
<path d="M55.7154 18.2803H60.4277" stroke="#5E279F" stroke-width="3" stroke-miterlimit="10" stroke-linecap="round"/>
</g>
<defs>
<clipPath id="clip0_35_284">
<rect width="75" height="72" fill="white"/>
</clipPath>
</defs>
</svg>
