<svg width="54" height="50" viewBox="0 0 54 50" fill="none" xmlns="http://www.w3.org/2000/svg">
<g clip-path="url(#clip0_32_227)">
<path d="M40.851 1.33569H13.1402C6.61898 1.33569 1.3327 6.634 1.3327 13.1701V46.8655L9.62194 38.8958H40.8599C47.3811 38.8958 52.6674 33.5975 52.6674 27.0614V13.1701C52.6674 6.634 47.3811 1.33569 40.851 1.33569Z" stroke="#5E279F" stroke-width="3" stroke-miterlimit="10"/>
<path d="M15.8411 23.1077C17.5388 23.1077 18.9151 21.7283 18.9151 20.0267C18.9151 18.3251 17.5388 16.9457 15.8411 16.9457C14.1433 16.9457 12.767 18.3251 12.767 20.0267C12.767 21.7283 14.1433 23.1077 15.8411 23.1077Z" stroke="#5E279F" stroke-width="3" stroke-miterlimit="10"/>
<path d="M26.8223 23.1077C28.5201 23.1077 29.8964 21.7283 29.8964 20.0267C29.8964 18.3251 28.5201 16.9457 26.8223 16.9457C25.1246 16.9457 23.7483 18.3251 23.7483 20.0267C23.7483 21.7283 25.1246 23.1077 26.8223 23.1077Z" stroke="#5E279F" stroke-width="3" stroke-miterlimit="10"/>
<path d="M37.8035 23.1077C39.5013 23.1077 40.8776 21.7283 40.8776 20.0267C40.8776 18.3251 39.5013 16.9457 37.8035 16.9457C36.1058 16.9457 34.7295 18.3251 34.7295 20.0267C34.7295 21.7283 36.1058 23.1077 37.8035 23.1077Z" stroke="#5E279F" stroke-width="3" stroke-miterlimit="10"/>
</g>
<defs>
<clipPath id="clip0_32_227">
<rect width="54" height="50" fill="white"/>
</clipPath>
</defs>
</svg>
