<svg width="40" height="59" viewBox="0 0 40 59" fill="none" xmlns="http://www.w3.org/2000/svg">
<g clip-path="url(#clip0_37_348)">
<path d="M4.36 6.43005C4.36 6.43005 3.32 15.6301 8.81 20.6801C14.3 25.7301 35.43 34.3201 35.43 52.5401" stroke="#5E279F" stroke-width="3" stroke-miterlimit="10" stroke-linecap="round"/>
<path d="M36.04 6.43005C36.04 6.43005 37.08 15.6301 31.59 20.6801C26.1 25.7301 4.97 34.3301 4.97 52.5401" stroke="#5E279F" stroke-width="3" stroke-miterlimit="10" stroke-linecap="round"/>
<path d="M35.06 1.5H4.67C2.92 1.5 1.5 2.92 1.5 4.67V6.43H38.23V4.67C38.23 2.92 36.81 1.5 35.06 1.5Z" stroke="#5E279F" stroke-width="3" stroke-miterlimit="10" stroke-linecap="round"/>
<path d="M4.67 57.48H35.06C36.81 57.48 38.23 56.0601 38.23 54.3101V52.55H1.5V54.3101C1.5 56.0601 2.92 57.48 4.67 57.48Z" stroke="#5E279F" stroke-width="3" stroke-miterlimit="10" stroke-linecap="round"/>
<path d="M31.31 13.3101C31.31 13.3101 29.77 19.7901 22.05 23.0701" stroke="#5E279F" stroke-width="3" stroke-miterlimit="10" stroke-linecap="round"/>
</g>
<defs>
<clipPath id="clip0_37_348">
<rect width="39.73" height="58.98" fill="white"/>
</clipPath>
</defs>
</svg>
