<svg width="112" height="112" viewBox="0 0 112 112" fill="none" xmlns="http://www.w3.org/2000/svg">
<g clip-path="url(#clip0_175_141)">
<path d="M58.5656 66.844H44.7761C45.3649 71.2609 48.9968 72.7323 52.7747 72.7323C55.8177 72.7323 58.2705 71.9959 59.5957 71.5059V77.983C57.8779 78.5231 55.4739 79.1607 51.9409 79.1607C44.6286 79.1607 37.6113 75.1363 37.6113 65.2737C37.6113 55.9986 44.2847 52.172 50.3206 52.172C56.3564 52.172 61.7547 56.0488 61.7547 63.6061C61.7561 65.715 60.4796 66.844 58.5656 66.844ZM45.0712 62.1333H54.885C54.64 59.3855 52.5785 57.8152 50.1744 57.8152C47.6715 57.8152 45.8563 59.3353 45.0712 62.1333Z" fill="#22C1DC" stroke="white" stroke-width="3" stroke-miterlimit="10"/>
<path d="M82.6101 58.8941H76.133V69.2981C76.133 71.1133 77.1144 72.4873 79.5184 72.4873C80.3523 72.4873 81.3838 72.3397 82.6101 71.9959V78.6693C81.2849 78.9644 80.0585 79.1607 79.0772 79.1607C71.3723 79.1607 68.5269 75.0876 68.5269 69.9844V58.8941H64.2089V52.6619H68.5269V46.7737H76.133V52.6619H82.6101V58.8941Z" fill="#22C1DC" stroke="white" stroke-width="3" stroke-miterlimit="10"/>
<path d="M100.914 72.4872C103.417 72.4872 105.968 71.6534 107.539 70.7208V77.5904C105.527 78.5231 102.68 79.1606 99.8838 79.1606C93.5529 79.1606 86.0457 75.1864 86.0457 65.5675C86.0457 56.0474 93.5543 52.1705 99.8838 52.1705C102.68 52.1705 105.527 52.7594 107.539 53.7408V60.5617C105.968 59.6291 103.417 58.8439 100.914 58.8439C97.3322 58.8927 93.8967 60.758 93.8967 65.5675C93.8967 70.4758 97.3322 72.4385 100.914 72.4872Z" fill="#22C1DC" stroke="white" stroke-width="3" stroke-miterlimit="10"/>
<path d="M42.0394 86.221H40.3829C40.4539 86.7514 40.8896 86.9282 41.3448 86.9282C41.7109 86.9282 42.006 86.8391 42.1647 86.7806V87.5588C41.9586 87.6242 41.6691 87.7008 41.2445 87.7008C40.3662 87.7008 39.5226 87.2177 39.5226 86.0317C39.5226 84.9167 40.3244 84.4573 41.051 84.4573C41.7777 84.4573 42.425 84.9237 42.425 85.8313C42.4236 86.0846 42.2705 86.221 42.0394 86.221ZM40.4177 85.6545H41.5967C41.5675 85.3246 41.3197 85.1353 41.0302 85.1353C40.7309 85.1353 40.5123 85.319 40.4177 85.6545Z" fill="white"/>
<path d="M45.8201 85.6601V87.6423H44.9055V85.7436C44.9055 85.4067 44.7232 85.2661 44.4865 85.2661C44.2388 85.2661 44.0383 85.3956 43.8671 85.532V87.6437H42.9525V84.5172H43.8072V84.8415C44.0661 84.6119 44.3974 84.4643 44.7691 84.4643C45.4136 84.4629 45.8201 84.8694 45.8201 85.6601Z" fill="white"/>
<path d="M49.2529 84.6689V87.6896C49.2529 88.4038 48.8284 88.8228 47.9903 88.8228H47.0048V88.0502H47.9903C48.2381 88.0502 48.3676 87.9263 48.3676 87.691V87.4488C48.22 87.5017 48.0544 87.5309 47.8776 87.5309C46.9686 87.5309 46.2726 86.9352 46.2726 86.015C46.2726 84.8889 47.1343 84.4573 48.0474 84.4573C48.4163 84.4573 48.852 84.5283 49.2529 84.6689ZM47.9917 86.7277C48.1045 86.7277 48.2214 86.7097 48.3398 86.6749V85.2884C48.2451 85.2703 48.1449 85.2591 48.0502 85.2591C47.6131 85.2591 47.2178 85.454 47.2178 86.0136C47.2192 86.5329 47.5839 86.7277 47.9917 86.7277Z" fill="white"/>
<path d="M50.4389 84.2096C50.1021 84.2096 49.8668 84.0035 49.8668 83.7265C49.8668 83.4439 50.1021 83.2365 50.4389 83.2365C50.7689 83.2365 51.0055 83.4425 51.0055 83.7265C51.0055 84.0035 50.7689 84.2096 50.4389 84.2096ZM49.9796 87.6423H50.8941V84.5158H49.9796V87.6423Z" fill="white"/>
<path d="M54.7625 85.6601V87.6423H53.8479V85.7436C53.8479 85.4067 53.6656 85.2661 53.4289 85.2661C53.1811 85.2661 52.9807 85.3956 52.8095 85.532V87.6437H51.8949V84.5172H52.7496V84.8415C53.0085 84.6119 53.3398 84.4643 53.7115 84.4643C54.356 84.4629 54.7625 84.8694 54.7625 85.6601Z" fill="white"/>
<path d="M57.7345 86.221H56.0766C56.1476 86.7514 56.5833 86.9282 57.0385 86.9282C57.4046 86.9282 57.6997 86.8391 57.8584 86.7806V87.5588C57.6524 87.6242 57.3628 87.7008 56.9383 87.7008C56.0599 87.7008 55.2163 87.2177 55.2163 86.0317C55.2163 84.9167 56.0181 84.4573 56.7434 84.4573C57.4686 84.4573 58.1173 84.9237 58.1173 85.8313C58.1187 86.0846 57.9656 86.221 57.7345 86.221ZM56.1128 85.6545H57.2918C57.2626 85.3246 57.0148 85.1353 56.7253 85.1353C56.426 85.1353 56.2074 85.319 56.1128 85.6545Z" fill="white"/>
<path d="M60.9905 86.221H59.3326C59.4036 86.7514 59.8393 86.9282 60.2945 86.9282C60.6606 86.9282 60.9557 86.8391 61.1144 86.7806V87.5588C60.9083 87.6242 60.6188 87.7008 60.1942 87.7008C59.3159 87.7008 58.4723 87.2177 58.4723 86.0317C58.4723 84.9167 59.2741 84.4573 59.9993 84.4573C60.7246 84.4573 61.3733 84.9237 61.3733 85.8313C61.3747 86.0846 61.2216 86.221 60.9905 86.221ZM59.3688 85.6545H60.5478C60.5186 85.3246 60.2708 85.1353 59.9813 85.1353C59.682 85.1353 59.4634 85.319 59.3688 85.6545Z" fill="white"/>
<path d="M64.0404 84.5214V85.3524C63.8636 85.2995 63.7035 85.2758 63.5629 85.2758C63.2678 85.2758 63.0256 85.3761 62.8196 85.5292V87.6409H61.905V84.5144H62.7597V84.8513C63.0075 84.5979 63.3207 84.4559 63.6506 84.4559C63.8038 84.4573 63.9457 84.4866 64.0404 84.5214Z" fill="white"/>
<path d="M64.9132 84.2096C64.5763 84.2096 64.3411 84.0035 64.3411 83.7265C64.3411 83.4439 64.5777 83.2365 64.9132 83.2365C65.2431 83.2365 65.4797 83.4425 65.4797 83.7265C65.4797 84.0035 65.2431 84.2096 64.9132 84.2096ZM64.4524 87.6423H65.367V84.5158H64.4524V87.6423Z" fill="white"/>
<path d="M69.2368 85.6601V87.6423H68.3223V85.7436C68.3223 85.4067 68.1399 85.2661 67.9033 85.2661C67.6555 85.2661 67.455 85.3956 67.2838 85.532V87.6437H66.3693V84.5172H67.224V84.8415C67.4829 84.6119 67.8142 84.4643 68.1859 84.4643C68.829 84.4629 69.2368 84.8694 69.2368 85.6601Z" fill="white"/>
<path d="M72.6695 84.6689V87.6896C72.6695 88.4038 72.245 88.8228 71.407 88.8228H70.4214V88.0502H71.407C71.6548 88.0502 71.7842 87.9263 71.7842 87.691V87.4488C71.6367 87.5017 71.471 87.5309 71.2942 87.5309C70.3852 87.5309 69.6892 86.9352 69.6892 86.015C69.6892 84.8889 70.5509 84.4573 71.464 84.4573C71.8315 84.4573 72.2686 84.5283 72.6695 84.6689ZM71.407 86.7277C71.5197 86.7277 71.6367 86.7097 71.755 86.6749V85.2884C71.6603 85.2703 71.5601 85.2591 71.4654 85.2591C71.0283 85.2591 70.6344 85.454 70.6344 86.0136C70.6344 86.5329 71.0005 86.7277 71.407 86.7277Z" fill="white"/>
<path d="M76.9041 85.2647H76.1259V86.5148C76.1259 86.7333 76.2442 86.8976 76.5324 86.8976C76.6326 86.8976 76.7565 86.8795 76.9041 86.8391V87.6409C76.7454 87.6757 76.5978 87.6994 76.4795 87.6994C75.5538 87.6994 75.2114 87.2094 75.2114 86.5969V85.2633H74.6921V84.5144H75.2114V83.8073H76.1259V84.5144H76.9041V85.2647Z" fill="white"/>
<path d="M79.8358 86.221H78.1779C78.2489 86.7514 78.6846 86.9282 79.1398 86.9282C79.5059 86.9282 79.801 86.8391 79.9597 86.7806V87.5588C79.7537 87.6242 79.4641 87.7008 79.0396 87.7008C78.1612 87.7008 77.3176 87.2177 77.3176 86.0317C77.3176 84.9167 78.1194 84.4573 78.8447 84.4573C79.5699 84.4573 80.2186 84.9237 80.2186 85.8313C80.2186 86.0846 80.0655 86.221 79.8358 86.221ZM78.2141 85.6545H79.3932C79.3639 85.3246 79.1161 85.1353 78.8266 85.1353C78.5259 85.1353 78.3074 85.319 78.2141 85.6545Z" fill="white"/>
<path d="M82.3609 86.899C82.6615 86.899 82.9678 86.7987 83.1571 86.686V87.5115C82.9149 87.6242 82.5724 87.7008 82.237 87.7008C81.4755 87.7008 80.5735 87.2233 80.5735 86.0665C80.5735 84.9223 81.4755 84.4559 82.237 84.4559C82.5738 84.4559 82.9149 84.5269 83.1571 84.6453V85.4652C82.9678 85.3524 82.6615 85.2591 82.3609 85.2591C81.9307 85.2647 81.5173 85.4888 81.5173 86.0679C81.5173 86.6567 81.9293 86.8934 82.3609 86.899Z" fill="white"/>
<path d="M86.5539 85.6545V87.6423H85.6393V85.7366C85.6393 85.3997 85.4444 85.2591 85.1911 85.2591C84.9614 85.2591 84.7609 85.3538 84.6008 85.4721V87.6423H83.6863V83.3367H84.6008V84.7288C84.8194 84.5576 85.1075 84.4573 85.4208 84.4573C86.1112 84.4573 86.5539 84.8638 86.5539 85.6545Z" fill="white"/>
<path d="M90.3289 86.899C90.6296 86.899 90.9358 86.7987 91.1251 86.686V87.5115C90.8829 87.6242 90.5405 87.7008 90.205 87.7008C89.4435 87.7008 88.5415 87.2233 88.5415 86.0665C88.5415 84.9223 89.4435 84.4559 90.205 84.4559C90.5419 84.4559 90.8829 84.5269 91.1251 84.6453V85.4652C90.9358 85.3524 90.6296 85.2591 90.3289 85.2591C89.8987 85.2647 89.4853 85.4888 89.4853 86.0679C89.4853 86.6567 89.8987 86.8934 90.3289 86.899Z" fill="white"/>
<path d="M94.5231 85.6545V87.6423H93.6085V85.7366C93.6085 85.3997 93.4137 85.2591 93.1603 85.2591C92.9306 85.2591 92.7302 85.3538 92.5701 85.4721V87.6423H91.6555V83.3367H92.5701V84.7288C92.7886 84.5576 93.0768 84.4573 93.39 84.4573C94.0804 84.4573 94.5231 84.8638 94.5231 85.6545Z" fill="white"/>
<path d="M97.6246 85.6489V87.6423H96.7629V87.4474C96.5569 87.595 96.2966 87.7008 95.9667 87.7008C95.3417 87.7008 94.9756 87.3347 94.9756 86.7389C94.9756 86.1194 95.4711 85.7603 96.1491 85.7603H96.7101V85.7129C96.7101 85.3942 96.4678 85.2591 96.0725 85.2591C95.7245 85.2591 95.4002 85.3775 95.1705 85.4888V84.6689C95.4363 84.5339 95.8553 84.4559 96.2799 84.4559C96.9996 84.4573 97.6246 84.7399 97.6246 85.6489ZM96.2855 87.0284C96.4275 87.0284 96.5862 86.9867 96.7101 86.9282V86.3909H96.3147C96.0614 86.3909 95.8665 86.48 95.8665 86.7152C95.8679 86.9352 96.0614 87.0284 96.2855 87.0284Z" fill="white"/>
<path d="M101.141 85.6601V87.6423H100.226V85.7436C100.226 85.4067 100.044 85.2661 99.8072 85.2661C99.5594 85.2661 99.359 85.3956 99.1878 85.532V87.6437H98.2732V84.5172H99.1279V84.8415C99.3868 84.6119 99.7181 84.4643 100.09 84.4643C100.733 84.4629 101.141 84.8694 101.141 85.6601Z" fill="white"/>
<path d="M104.574 84.6689V87.6896C104.574 88.4038 104.149 88.8228 103.311 88.8228H102.325V88.0502H103.311C103.559 88.0502 103.688 87.9263 103.688 87.691V87.4488C103.541 87.5017 103.375 87.5309 103.198 87.5309C102.289 87.5309 101.593 86.9352 101.593 86.015C101.593 84.8889 102.455 84.4573 103.368 84.4573C103.736 84.4573 104.171 84.5283 104.574 84.6689ZM103.311 86.7277C103.424 86.7277 103.541 86.7097 103.659 86.6749V85.2884C103.564 85.2703 103.464 85.2591 103.369 85.2591C102.932 85.2591 102.538 85.454 102.538 86.0136C102.538 86.5329 102.903 86.7277 103.311 86.7277Z" fill="white"/>
<path d="M107.64 86.221H105.982C106.053 86.7514 106.489 86.9282 106.944 86.9282C107.31 86.9282 107.605 86.8391 107.764 86.7806V87.5588C107.558 87.6242 107.269 87.7008 106.844 87.7008C105.966 87.7008 105.122 87.2177 105.122 86.0317C105.122 84.9167 105.924 84.4573 106.649 84.4573C107.374 84.4573 108.023 84.9237 108.023 85.8313C108.023 86.0846 107.87 86.221 107.64 86.221ZM106.019 85.6545H107.198C107.168 85.3246 106.921 85.1353 106.631 85.1353C106.33 85.1353 106.113 85.319 106.019 85.6545Z" fill="white"/>
<path d="M26.53 39.2473C32.1363 33.641 32.1363 24.5513 26.53 18.945C20.9236 13.3387 11.834 13.3387 6.22768 18.945C0.62136 24.5513 0.62136 33.641 6.22768 39.2473C11.834 44.8536 20.9236 44.8536 26.53 39.2473Z" fill="white"/>
<path d="M22.8767 25.3294C22.8767 24.7726 22.4256 24.3216 21.8688 24.3216H19.9548L15.542 19.2309C15.1328 18.759 14.4855 18.5697 13.8869 18.7479L12.3557 19.2031C12.1218 19.2727 12.0494 19.5692 12.2262 19.7376L17.0301 24.3202H9.68994C9.47835 24.3202 9.30713 24.4914 9.30713 24.703V25.5313C9.30713 26.0881 9.75815 26.5391 10.315 26.5391H11.4369V30.4145C11.4369 33.3071 12.9779 35.0333 15.5601 35.0333C16.3438 35.0333 17.0204 34.9414 17.793 34.6393V37.2229C17.793 37.9231 18.3609 38.4911 19.0611 38.4911H20.1761C20.4406 38.4911 20.655 38.2767 20.655 38.0122V26.5391H22.4952C22.7068 26.5391 22.878 26.3679 22.878 26.1563V25.3294H22.8767ZM17.793 32.2283C17.3405 32.4316 16.6835 32.5457 16.1977 32.5457C14.8822 32.5457 14.2962 31.8887 14.2962 30.4173V26.5419H17.793V32.2283Z" fill="#5F289F"/>
<path d="M74.709 37.2967V32.0835C74.709 30.7709 74.1939 30.1862 73.0399 30.1862C72.5499 30.1862 71.9959 30.2516 71.6396 30.3755V38.015C71.6396 38.2795 71.4252 38.4938 71.1607 38.4938H69.3232C69.0587 38.4938 68.8444 38.2795 68.8444 38.015V29.067C68.8444 28.7552 69.0532 28.4865 69.3051 28.396C70.4897 27.9743 71.7398 27.7167 73.0385 27.7167C75.9284 27.7167 77.5195 29.2675 77.5195 32.0849V38.0164C77.5195 38.2809 77.3051 38.4952 77.0406 38.4952H75.9034C75.2449 38.4938 74.709 37.9579 74.709 37.2967ZM81.9545 34.1521H81.8905V34.2161L81.8933 34.8899C81.8933 35.8657 82.5155 36.4253 83.5999 36.4253C84.4031 36.4253 85.1659 36.222 85.9301 35.8017C85.9747 35.778 86.0554 35.7432 86.1835 35.7432C86.3324 35.7432 86.4563 35.8309 86.5273 35.913C86.5997 35.9965 86.8085 36.2388 86.8085 36.2388C87.009 36.4712 87.1301 36.7663 87.1203 37.0726C87.1064 37.486 86.8823 37.8438 86.5343 38.0289C85.6336 38.5078 84.6425 38.7416 83.5052 38.7416C82.2385 38.7416 81.1541 38.4034 80.3704 37.7644C79.5268 37.0768 79.0814 36.0634 79.0814 34.8328V31.7202C79.0814 29.2118 80.7142 27.7153 83.4482 27.7153C86.1139 27.7153 87.6437 29.1756 87.6437 31.7202L87.6423 33.6732C87.6423 33.9377 87.428 34.1507 87.1635 34.1507H81.9545V34.1521ZM81.8905 32.3898H81.9545H84.8959H84.9599V32.3258L84.9627 31.5866C84.9627 30.5871 84.4031 30.0122 83.4287 30.0122C82.4389 30.0122 81.8933 30.5718 81.8933 31.5852L81.8905 32.3244V32.3898ZM102.394 34.1521H102.33V34.2161L102.332 34.8899C102.332 35.8657 102.955 36.4253 104.039 36.4253C104.842 36.4253 105.605 36.222 106.369 35.8017C106.414 35.778 106.495 35.7432 106.623 35.7432C106.772 35.7432 106.896 35.8309 106.967 35.913C107.039 35.9965 107.248 36.2388 107.248 36.2388C107.448 36.4712 107.569 36.7663 107.56 37.0726C107.546 37.486 107.321 37.8438 106.973 38.0289C106.073 38.5078 105.082 38.7416 103.944 38.7416C102.678 38.7416 101.593 38.4034 100.81 37.7644C99.966 37.0768 99.5206 36.0634 99.5206 34.8328V31.7202C99.5206 29.2118 101.153 27.7153 103.887 27.7153C106.553 27.7153 108.083 29.1756 108.083 31.7202L108.082 33.6732C108.082 33.9377 107.867 34.1507 107.603 34.1507H102.394V34.1521ZM102.33 32.3898H102.394H105.335H105.399V32.3258L105.402 31.5866C105.402 30.5871 104.842 30.0122 103.868 30.0122C102.878 30.0122 102.332 30.5718 102.332 31.5852L102.33 32.3244V32.3898ZM55.0911 38.4938H56.2284C56.4929 38.4938 56.7072 38.2795 56.7072 38.015V32.064C56.7072 29.3412 55.2539 27.7167 52.8179 27.7167C52.0829 27.7167 51.2922 27.8434 50.8231 28.0508V25.1122C50.8231 24.451 50.2872 23.9165 49.6274 23.9165H48.5096C48.2451 23.9165 48.0307 24.1309 48.0307 24.3953V38.0164C48.0307 38.2809 48.2451 38.4952 48.5096 38.4952H50.3456C50.6101 38.4952 50.8245 38.2809 50.8245 38.0164V30.4382C51.2059 30.2642 51.7669 30.1681 52.2082 30.1681C53.3761 30.1681 53.8953 30.7541 53.8953 32.0654V37.2981C53.8953 37.9579 54.4313 38.4938 55.0911 38.4938ZM67.2101 31.7592V34.7576C67.2101 37.216 65.5007 38.743 62.7486 38.743C59.9841 38.743 58.2677 37.216 58.2677 34.7576V31.7592C58.2677 29.2661 59.9855 27.7167 62.7486 27.7167C65.5007 27.7167 67.2101 29.2661 67.2101 31.7592ZM64.3787 31.7592C64.3787 30.7597 63.7843 30.1862 62.7473 30.1862C61.7116 30.1862 61.1158 30.7597 61.1158 31.7592V34.7576C61.1158 35.7474 61.6949 36.293 62.7473 36.293C63.7982 36.293 64.3787 35.7474 64.3787 34.7576V31.7592ZM46.4758 30.3755C46.4716 32.9758 44.5311 34.7228 41.9837 34.7228C41.3406 34.7228 40.7894 34.6323 40.2478 34.4194V38.015C40.2478 38.2795 40.0335 38.4938 39.769 38.4938H37.8897C37.6253 38.4938 37.4109 38.2795 37.4109 38.015V25.2487C37.4109 24.8937 37.6587 24.6501 37.8911 24.5707C39.0758 24.1671 40.3147 23.9221 41.5758 23.9221C44.456 23.9221 46.4758 25.676 46.4758 28.3919V30.3755ZM43.5985 28.3292C43.5985 27.0653 42.7479 26.4208 41.4937 26.4208C40.8019 26.4208 40.2492 26.6421 40.2492 26.6421V31.9304C40.6947 32.1754 41.0079 32.252 41.5146 32.252C42.7521 32.252 43.5999 31.5587 43.5999 30.3519V28.3292H43.5985ZM98.3526 30.3755C98.3485 32.9758 96.408 34.7228 93.8606 34.7228C93.2174 34.7228 92.6662 34.6323 92.1247 34.4194V38.015C92.1247 38.2795 91.9103 38.4938 91.6458 38.4938H89.7666C89.5021 38.4938 89.2877 38.2795 89.2877 38.015V25.2487C89.2877 24.8937 89.5355 24.6501 89.768 24.5707C90.9526 24.1671 92.1915 23.9221 93.4527 23.9221C96.3328 23.9221 98.3526 25.676 98.3526 28.3919V30.3755ZM95.4753 28.3292C95.4753 27.0653 94.6248 26.4208 93.3706 26.4208C92.6787 26.4208 92.1261 26.6421 92.1261 26.6421V31.9304C92.5715 32.1754 92.8847 32.252 93.3914 32.252C94.629 32.252 95.4767 31.5587 95.4767 30.3519V28.3292H95.4753Z" fill="white"/>
</g>
<defs>
<clipPath id="clip0_175_141">
<rect width="111.363" height="111.363" fill="white"/>
</clipPath>
</defs>
</svg>
