<svg width="168" height="59" viewBox="0 0 168 59" fill="none" xmlns="http://www.w3.org/2000/svg">
<g clip-path="url(#clip0_4_8)" filter="url(#filter0_d_4_8)">
<path d="M46.784 33.9363C49.5379 22.3106 42.3162 10.6606 30.654 7.9154C18.9918 5.17019 7.30534 12.3693 4.55153 23.995C1.79772 35.6208 9.01938 47.2707 20.6816 50.0159C32.3437 52.7611 44.0302 45.562 46.784 33.9363Z" fill="white"/>
<path d="M113.697 41.325V33.4708C113.697 31.5375 112.97 30.5708 111.151 30.5708C110.424 30.5708 109.576 30.6917 109.091 30.8125V42.2917C109.091 42.6542 108.727 43.0167 108.364 43.0167H105.576C105.212 43.0167 104.848 42.6542 104.848 42.2917V28.8792C104.848 28.3958 105.212 28.0333 105.576 27.9125C107.394 27.3083 109.212 26.9458 111.151 26.9458C115.515 26.9458 117.939 29.2417 117.939 33.4708V42.4125C117.939 42.775 117.576 43.1375 117.212 43.1375H115.515C114.424 43.1375 113.697 42.2917 113.697 41.325ZM124.606 36.6125L124.485 37.7C124.485 39.15 125.455 39.9958 127.03 39.9958C128.242 39.9958 129.333 39.6333 130.545 39.0292C130.667 39.0292 130.788 38.9083 130.909 38.9083C131.151 38.9083 131.273 39.0292 131.394 39.15C131.515 39.2708 131.758 39.6333 131.758 39.6333C132 39.9958 132.242 40.4792 132.242 40.8417C132.242 41.4458 131.879 42.05 131.394 42.2917C130.061 43.0167 128.485 43.3792 126.788 43.3792C124.848 43.3792 123.273 42.8958 122.061 41.9292C120.848 40.8417 120.121 39.3917 120.121 37.5792V32.8667C120.121 29.1208 122.545 26.825 126.667 26.825C130.667 26.825 132.97 29 132.97 32.8667V35.7667C132.97 36.1292 132.606 36.4917 132.242 36.4917H124.606V36.6125ZM124.485 33.9542H129.091V32.7458C129.091 31.2958 128.242 30.3292 126.788 30.3292C125.333 30.3292 124.485 31.175 124.485 32.7458V33.9542ZM155.394 36.6125L155.273 37.7C155.273 39.15 156.242 39.9958 157.818 39.9958C159.03 39.9958 160.121 39.6333 161.333 39.0292C161.455 39.0292 161.576 38.9083 161.697 38.9083C161.939 38.9083 162.061 39.0292 162.182 39.15C162.303 39.2708 162.545 39.6333 162.545 39.6333C162.788 39.9958 163.03 40.4792 163.03 40.8417C163.03 41.4458 162.667 42.05 162.182 42.2917C160.848 43.0167 159.273 43.3792 157.576 43.3792C155.636 43.3792 154.061 42.8958 152.848 41.9292C151.636 40.8417 150.909 39.3917 150.909 37.5792V32.8667C150.909 29.1208 153.333 26.825 157.455 26.825C161.455 26.825 163.758 29 163.758 32.8667V35.7667C163.758 36.1292 163.394 36.4917 163.03 36.4917H155.394V36.6125ZM155.273 33.9542H159.879V32.7458C159.879 31.2958 159.03 30.3292 157.576 30.3292C156.121 30.3292 155.273 31.175 155.273 32.7458V33.9542ZM84 43.1375H85.697C86.0606 43.1375 86.4242 42.775 86.4242 42.4125V33.4708C86.4242 29.3625 84.2424 26.9458 80.606 26.9458C79.5151 26.9458 78.303 27.1875 77.5757 27.4292V22.9583C77.5757 21.9917 76.7273 21.1458 75.7576 21.1458H74.0606C73.6969 21.1458 73.3333 21.5083 73.3333 21.8708V42.4125C73.3333 42.775 73.6969 43.1375 74.0606 43.1375H76.8485C77.2121 43.1375 77.5757 42.775 77.5757 42.4125V31.0542C78.1818 30.8125 79.0303 30.6917 79.6363 30.6917C81.4545 30.6917 82.1818 31.5375 82.1818 33.5917V41.4458C82.303 42.2917 83.0303 43.1375 84 43.1375ZM102.303 32.9875V37.4583C102.303 41.2042 99.7576 43.5 95.5151 43.5C91.3939 43.5 88.7273 41.2042 88.7273 37.4583V32.9875C88.7273 29.2417 91.2727 26.9458 95.5151 26.9458C99.7576 26.9458 102.303 29.2417 102.303 32.9875ZM98.0606 32.9875C98.0606 31.5375 97.2121 30.5708 95.6363 30.5708C94.0606 30.5708 93.2121 31.4167 93.2121 32.9875V37.4583C93.2121 38.9083 94.0606 39.7542 95.6363 39.7542C97.2121 39.7542 98.0606 38.9083 98.0606 37.4583V32.9875ZM71.0303 30.9333C71.0303 34.8 68.1212 37.4583 64.2424 37.4583C63.2727 37.4583 62.4242 37.3375 61.5757 36.975V42.4125C61.5757 42.775 61.2121 43.1375 60.8485 43.1375H58.0606C57.6969 43.1375 57.3333 42.775 57.3333 42.4125V23.2C57.3333 22.7167 57.6969 22.3542 58.0606 22.2333C59.8788 21.6292 61.697 21.2667 63.6363 21.2667C68 21.2667 71.0303 23.925 71.0303 28.0333V30.9333ZM66.6666 27.7917C66.6666 25.8583 65.3333 24.8917 63.5151 24.8917C62.4242 24.8917 61.6969 25.2542 61.6969 25.2542V33.2292C62.4242 33.5917 62.7879 33.7125 63.6363 33.7125C65.4545 33.7125 66.7879 32.625 66.7879 30.8125V27.7917H66.6666ZM149.333 30.9333C149.333 34.8 146.424 37.4583 142.545 37.4583C141.576 37.4583 140.727 37.3375 139.879 36.975V42.4125C139.879 42.775 139.515 43.1375 139.151 43.1375H136.364C136 43.1375 135.636 42.775 135.636 42.4125V23.2C135.636 22.7167 136 22.3542 136.364 22.2333C138.182 21.6292 140 21.2667 141.939 21.2667C146.303 21.2667 149.333 23.925 149.333 28.0333V30.9333ZM144.97 27.7917C144.97 25.8583 143.636 24.8917 141.818 24.8917C140.727 24.8917 140 25.2542 140 25.2542V33.2292C140.727 33.5917 141.091 33.7125 141.939 33.7125C143.758 33.7125 145.091 32.625 145.091 30.8125V27.7917H144.97Z" fill="white"/>
<path d="M35.5152 23.3208C35.5152 22.475 34.7879 21.75 33.9394 21.75H31.0303L24.3637 14.1375C23.7576 13.4125 22.7879 13.1708 21.8182 13.4125L19.5152 14.1375C19.1515 14.2583 19.0303 14.7417 19.2728 14.9833L26.5455 21.8708H15.5152C15.1515 21.8708 14.9091 22.1125 14.9091 22.475V23.6833C14.9091 24.5292 15.6364 25.2542 16.4849 25.2542H18.1818V31.0542C18.1818 35.4042 20.4849 37.9417 24.3637 37.9417C25.5758 37.9417 26.5455 37.8208 27.7576 37.3375V41.2042C27.7576 42.2917 28.6061 43.1375 29.697 43.1375H31.394C31.7576 43.1375 32.1212 42.775 32.1212 42.4125V25.1333H34.9091C35.2728 25.1333 35.5152 24.8917 35.5152 24.5292V23.3208ZM27.7576 33.7125C27.0303 34.075 26.0606 34.1958 25.3334 34.1958C23.394 34.1958 22.4243 33.2292 22.4243 31.0542V25.2542H27.7576V33.7125Z" fill="#5E279F"/>
</g>
<defs>
<filter id="filter0_d_4_8" x="0" y="0" width="168" height="66" filterUnits="userSpaceOnUse" color-interpolation-filters="sRGB">
<feFlood flood-opacity="0" result="BackgroundImageFix"/>
<feColorMatrix in="SourceAlpha" type="matrix" values="0 0 0 0 0 0 0 0 0 0 0 0 0 0 0 0 0 0 127 0" result="hardAlpha"/>
<feOffset dy="4"/>
<feGaussianBlur stdDeviation="2"/>
<feComposite in2="hardAlpha" operator="out"/>
<feColorMatrix type="matrix" values="0 0 0 0 0 0 0 0 0 0 0 0 0 0 0 0 0 0 0.25 0"/>
<feBlend mode="normal" in2="BackgroundImageFix" result="effect1_dropShadow_4_8"/>
<feBlend mode="normal" in="SourceGraphic" in2="effect1_dropShadow_4_8" result="shape"/>
</filter>
<clipPath id="clip0_4_8">
<rect width="160" height="58" fill="white" transform="translate(4)"/>
</clipPath>
</defs>
</svg>
